<mxfile host="Electron" modified="2023-04-21T21:29:49.886Z" agent="Mozilla/5.0 (Macintosh; Intel Mac OS X 10_15_7) AppleWebKit/537.36 (KHTML, like Gecko) draw.io/21.2.1 Chrome/112.0.5615.87 Electron/24.1.2 Safari/537.36" etag="y1JIYHY5nGx0_ve4DRUj" version="21.2.1" type="device" pages="4">
  <diagram name="data_prices" id="ktuU488aBa58X60uyQGt">
    <mxGraphModel dx="1434" dy="782" grid="1" gridSize="10" guides="1" tooltips="1" connect="1" arrows="1" fold="1" page="1" pageScale="1" pageWidth="640" pageHeight="340" math="0" shadow="0">
      <root>
        <mxCell id="0" />
        <mxCell id="1" parent="0" />
        <mxCell id="d1JnCKLSdPA7jmVFw5RB-29" value="" style="shape=flexArrow;endArrow=classic;html=1;rounded=0;" parent="1" edge="1">
          <mxGeometry width="50" height="50" relative="1" as="geometry">
            <mxPoint x="260" y="180" as="sourcePoint" />
            <mxPoint x="300" y="180" as="targetPoint" />
          </mxGeometry>
        </mxCell>
        <mxCell id="d1JnCKLSdPA7jmVFw5RB-32" value="prices.txt" style="text;html=1;align=center;verticalAlign=middle;resizable=0;points=[];autosize=1;strokeColor=none;fillColor=none;fontSize=14;" parent="1" vertex="1">
          <mxGeometry x="100" y="285" width="80" height="30" as="geometry" />
        </mxCell>
        <mxCell id="d1JnCKLSdPA7jmVFw5RB-33" value="priceMap: HashMap&amp;lt;Int, Price&amp;gt;" style="text;html=1;align=center;verticalAlign=middle;resizable=0;points=[];autosize=1;strokeColor=none;fillColor=none;fontSize=14;" parent="1" vertex="1">
          <mxGeometry x="360" y="285" width="220" height="30" as="geometry" />
        </mxCell>
        <mxCell id="d1JnCKLSdPA7jmVFw5RB-34" value="" style="group" parent="1" vertex="1" connectable="0">
          <mxGeometry x="60" y="40" width="160" height="200" as="geometry" />
        </mxCell>
        <mxCell id="d1JnCKLSdPA7jmVFw5RB-1" value="&lt;span style=&quot;font-weight: normal;&quot;&gt;&lt;font style=&quot;font-size: 11px;&quot;&gt;size&lt;/font&gt;&lt;/span&gt;&lt;br&gt;2" style="ellipse;whiteSpace=wrap;html=1;aspect=fixed;fontStyle=1" parent="d1JnCKLSdPA7jmVFw5RB-34" vertex="1">
          <mxGeometry width="40" height="40" as="geometry" />
        </mxCell>
        <mxCell id="d1JnCKLSdPA7jmVFw5RB-2" value="&lt;span style=&quot;font-weight: normal;&quot;&gt;&lt;font style=&quot;font-size: 11px;&quot;&gt;id&lt;/font&gt;&lt;/span&gt;&lt;br&gt;7" style="ellipse;whiteSpace=wrap;html=1;aspect=fixed;fontStyle=1" parent="d1JnCKLSdPA7jmVFw5RB-34" vertex="1">
          <mxGeometry y="80" width="40" height="40" as="geometry" />
        </mxCell>
        <mxCell id="d1JnCKLSdPA7jmVFw5RB-10" style="edgeStyle=orthogonalEdgeStyle;rounded=0;orthogonalLoop=1;jettySize=auto;html=1;exitX=0;exitY=0.5;exitDx=0;exitDy=0;entryX=0;entryY=0.5;entryDx=0;entryDy=0;" parent="d1JnCKLSdPA7jmVFw5RB-34" source="d1JnCKLSdPA7jmVFw5RB-1" target="d1JnCKLSdPA7jmVFw5RB-2" edge="1">
          <mxGeometry relative="1" as="geometry" />
        </mxCell>
        <mxCell id="d1JnCKLSdPA7jmVFw5RB-3" value="&lt;span style=&quot;font-weight: normal;&quot;&gt;&lt;font style=&quot;font-size: 11px;&quot;&gt;amount&lt;/font&gt;&lt;/span&gt;&lt;br&gt;3" style="ellipse;whiteSpace=wrap;html=1;aspect=fixed;fontStyle=1" parent="d1JnCKLSdPA7jmVFw5RB-34" vertex="1">
          <mxGeometry x="60" y="80" width="40" height="40" as="geometry" />
        </mxCell>
        <mxCell id="d1JnCKLSdPA7jmVFw5RB-4" value="&lt;font style=&quot;font-size: 11px; font-weight: normal;&quot;&gt;price&lt;/font&gt;&lt;br&gt;2" style="ellipse;whiteSpace=wrap;html=1;aspect=fixed;fontStyle=1" parent="d1JnCKLSdPA7jmVFw5RB-34" vertex="1">
          <mxGeometry x="120" y="80" width="40" height="40" as="geometry" />
        </mxCell>
        <mxCell id="d1JnCKLSdPA7jmVFw5RB-5" value="&lt;font style=&quot;font-size: 11px; font-weight: normal;&quot;&gt;id&lt;/font&gt;&lt;br&gt;8" style="ellipse;whiteSpace=wrap;html=1;aspect=fixed;fontStyle=1" parent="d1JnCKLSdPA7jmVFw5RB-34" vertex="1">
          <mxGeometry y="160" width="40" height="40" as="geometry" />
        </mxCell>
        <mxCell id="d1JnCKLSdPA7jmVFw5RB-9" style="edgeStyle=orthogonalEdgeStyle;rounded=0;orthogonalLoop=1;jettySize=auto;html=1;exitX=0;exitY=0.5;exitDx=0;exitDy=0;entryX=0;entryY=0.5;entryDx=0;entryDy=0;" parent="d1JnCKLSdPA7jmVFw5RB-34" source="d1JnCKLSdPA7jmVFw5RB-1" target="d1JnCKLSdPA7jmVFw5RB-5" edge="1">
          <mxGeometry relative="1" as="geometry" />
        </mxCell>
        <mxCell id="d1JnCKLSdPA7jmVFw5RB-6" value="&lt;font style=&quot;font-size: 11px; font-weight: normal;&quot;&gt;amount&lt;/font&gt;&lt;br&gt;2" style="ellipse;whiteSpace=wrap;html=1;aspect=fixed;fontStyle=1" parent="d1JnCKLSdPA7jmVFw5RB-34" vertex="1">
          <mxGeometry x="60" y="160" width="40" height="40" as="geometry" />
        </mxCell>
        <mxCell id="d1JnCKLSdPA7jmVFw5RB-7" value="&lt;font style=&quot;font-size: 11px; font-weight: normal;&quot;&gt;price&lt;/font&gt;&lt;br&gt;5" style="ellipse;whiteSpace=wrap;html=1;aspect=fixed;fontStyle=1" parent="d1JnCKLSdPA7jmVFw5RB-34" vertex="1">
          <mxGeometry x="120" y="160" width="40" height="40" as="geometry" />
        </mxCell>
        <mxCell id="d1JnCKLSdPA7jmVFw5RB-35" value="" style="group" parent="1" vertex="1" connectable="0">
          <mxGeometry x="340" y="110" width="260" height="140" as="geometry" />
        </mxCell>
        <mxCell id="d1JnCKLSdPA7jmVFw5RB-11" value="&lt;font style=&quot;font-size: 11px; font-weight: normal;&quot;&gt;id&lt;/font&gt;&lt;br&gt;7" style="ellipse;whiteSpace=wrap;html=1;aspect=fixed;fontStyle=1" parent="d1JnCKLSdPA7jmVFw5RB-35" vertex="1">
          <mxGeometry y="10" width="40" height="40" as="geometry" />
        </mxCell>
        <mxCell id="d1JnCKLSdPA7jmVFw5RB-12" value="&lt;font style=&quot;font-size: 11px; font-weight: normal;&quot;&gt;id&lt;/font&gt;&lt;br&gt;8" style="ellipse;whiteSpace=wrap;html=1;aspect=fixed;fontStyle=1" parent="d1JnCKLSdPA7jmVFw5RB-35" vertex="1">
          <mxGeometry y="90" width="40" height="40" as="geometry" />
        </mxCell>
        <mxCell id="d1JnCKLSdPA7jmVFw5RB-26" value="" style="group" parent="d1JnCKLSdPA7jmVFw5RB-35" vertex="1" connectable="0">
          <mxGeometry x="80" width="180" height="60" as="geometry" />
        </mxCell>
        <mxCell id="d1JnCKLSdPA7jmVFw5RB-24" value="" style="rounded=0;whiteSpace=wrap;html=1;" parent="d1JnCKLSdPA7jmVFw5RB-26" vertex="1">
          <mxGeometry width="180" height="60" as="geometry" />
        </mxCell>
        <mxCell id="d1JnCKLSdPA7jmVFw5RB-13" value="&lt;font style=&quot;font-size: 11px; font-weight: normal;&quot;&gt;id&lt;/font&gt;&lt;br&gt;7" style="ellipse;whiteSpace=wrap;html=1;aspect=fixed;fontStyle=1" parent="d1JnCKLSdPA7jmVFw5RB-26" vertex="1">
          <mxGeometry x="10" y="10" width="40" height="40" as="geometry" />
        </mxCell>
        <mxCell id="d1JnCKLSdPA7jmVFw5RB-15" value="&lt;font style=&quot;font-size: 11px; font-weight: normal;&quot;&gt;amount&lt;/font&gt;&lt;br&gt;3" style="ellipse;whiteSpace=wrap;html=1;aspect=fixed;fontStyle=1" parent="d1JnCKLSdPA7jmVFw5RB-26" vertex="1">
          <mxGeometry x="70" y="10" width="40" height="40" as="geometry" />
        </mxCell>
        <mxCell id="d1JnCKLSdPA7jmVFw5RB-16" value="&lt;font style=&quot;font-size: 11px; font-weight: normal;&quot;&gt;price&lt;/font&gt;&lt;br&gt;2" style="ellipse;whiteSpace=wrap;html=1;aspect=fixed;fontStyle=1" parent="d1JnCKLSdPA7jmVFw5RB-26" vertex="1">
          <mxGeometry x="130" y="10" width="40" height="40" as="geometry" />
        </mxCell>
        <mxCell id="d1JnCKLSdPA7jmVFw5RB-30" style="edgeStyle=orthogonalEdgeStyle;rounded=0;orthogonalLoop=1;jettySize=auto;html=1;exitX=1;exitY=0.5;exitDx=0;exitDy=0;entryX=0;entryY=0.5;entryDx=0;entryDy=0;" parent="d1JnCKLSdPA7jmVFw5RB-35" source="d1JnCKLSdPA7jmVFw5RB-11" target="d1JnCKLSdPA7jmVFw5RB-24" edge="1">
          <mxGeometry relative="1" as="geometry" />
        </mxCell>
        <mxCell id="d1JnCKLSdPA7jmVFw5RB-27" value="" style="group" parent="d1JnCKLSdPA7jmVFw5RB-35" vertex="1" connectable="0">
          <mxGeometry x="80" y="80" width="180" height="60" as="geometry" />
        </mxCell>
        <mxCell id="d1JnCKLSdPA7jmVFw5RB-25" value="" style="rounded=0;whiteSpace=wrap;html=1;" parent="d1JnCKLSdPA7jmVFw5RB-27" vertex="1">
          <mxGeometry width="180" height="60" as="geometry" />
        </mxCell>
        <mxCell id="d1JnCKLSdPA7jmVFw5RB-14" value="&lt;font style=&quot;font-size: 11px; font-weight: normal;&quot;&gt;id&lt;/font&gt;&lt;br&gt;8" style="ellipse;whiteSpace=wrap;html=1;aspect=fixed;fontStyle=1" parent="d1JnCKLSdPA7jmVFw5RB-27" vertex="1">
          <mxGeometry x="10" y="10" width="40" height="40" as="geometry" />
        </mxCell>
        <mxCell id="d1JnCKLSdPA7jmVFw5RB-17" value="&lt;font style=&quot;font-size: 11px; font-weight: normal;&quot;&gt;amount&lt;/font&gt;&lt;br&gt;2" style="ellipse;whiteSpace=wrap;html=1;aspect=fixed;fontStyle=1" parent="d1JnCKLSdPA7jmVFw5RB-27" vertex="1">
          <mxGeometry x="70" y="10" width="40" height="40" as="geometry" />
        </mxCell>
        <mxCell id="d1JnCKLSdPA7jmVFw5RB-18" value="&lt;font style=&quot;font-size: 11px; font-weight: normal;&quot;&gt;price&lt;/font&gt;&lt;br&gt;2" style="ellipse;whiteSpace=wrap;html=1;aspect=fixed;fontStyle=1" parent="d1JnCKLSdPA7jmVFw5RB-27" vertex="1">
          <mxGeometry x="130" y="10" width="40" height="40" as="geometry" />
        </mxCell>
        <mxCell id="d1JnCKLSdPA7jmVFw5RB-31" style="edgeStyle=orthogonalEdgeStyle;rounded=0;orthogonalLoop=1;jettySize=auto;html=1;exitX=1;exitY=0.5;exitDx=0;exitDy=0;entryX=0;entryY=0.5;entryDx=0;entryDy=0;" parent="d1JnCKLSdPA7jmVFw5RB-35" source="d1JnCKLSdPA7jmVFw5RB-12" target="d1JnCKLSdPA7jmVFw5RB-25" edge="1">
          <mxGeometry relative="1" as="geometry" />
        </mxCell>
      </root>
    </mxGraphModel>
  </diagram>
  <diagram name="data_promotions" id="5gNw0e3fO2MTQNwztsor">
    <mxGraphModel dx="1434" dy="782" grid="1" gridSize="10" guides="1" tooltips="1" connect="1" arrows="1" fold="1" page="1" pageScale="1" pageWidth="848" pageHeight="340" math="0" shadow="0">
      <root>
        <mxCell id="ZXGNAjsmb9mcJ5op5P8p-0" />
        <mxCell id="ZXGNAjsmb9mcJ5op5P8p-1" parent="ZXGNAjsmb9mcJ5op5P8p-0" />
        <mxCell id="ZXGNAjsmb9mcJ5op5P8p-2" value="" style="shape=flexArrow;endArrow=classic;html=1;rounded=0;" parent="ZXGNAjsmb9mcJ5op5P8p-1" edge="1">
          <mxGeometry width="50" height="50" relative="1" as="geometry">
            <mxPoint x="440" y="169" as="sourcePoint" />
            <mxPoint x="480" y="169" as="targetPoint" />
          </mxGeometry>
        </mxCell>
        <mxCell id="ZXGNAjsmb9mcJ5op5P8p-3" value="promotions.txt" style="text;html=1;align=center;verticalAlign=middle;resizable=0;points=[];autosize=1;strokeColor=none;fillColor=none;fontSize=14;" parent="ZXGNAjsmb9mcJ5op5P8p-1" vertex="1">
          <mxGeometry x="175" y="280" width="110" height="30" as="geometry" />
        </mxCell>
        <mxCell id="ZXGNAjsmb9mcJ5op5P8p-4" value="promotionMultimap: TreeMultimap&amp;lt;Double, Promotion&amp;gt;" style="text;html=1;align=center;verticalAlign=middle;resizable=0;points=[];autosize=1;strokeColor=none;fillColor=none;fontSize=14;" parent="ZXGNAjsmb9mcJ5op5P8p-1" vertex="1">
          <mxGeometry x="465" y="280" width="370" height="30" as="geometry" />
        </mxCell>
        <mxCell id="EI81qtIW30OtZCoD6vLg-1" value="" style="group" parent="ZXGNAjsmb9mcJ5op5P8p-1" vertex="1" connectable="0">
          <mxGeometry x="60" y="40" width="340" height="200" as="geometry" />
        </mxCell>
        <mxCell id="ZXGNAjsmb9mcJ5op5P8p-6" value="&lt;span style=&quot;font-weight: normal;&quot;&gt;&lt;font style=&quot;font-size: 11px;&quot;&gt;size&lt;/font&gt;&lt;/span&gt;&lt;br&gt;2" style="ellipse;whiteSpace=wrap;html=1;aspect=fixed;fontStyle=1" parent="EI81qtIW30OtZCoD6vLg-1" vertex="1">
          <mxGeometry width="40" height="40" as="geometry" />
        </mxCell>
        <mxCell id="ZXGNAjsmb9mcJ5op5P8p-7" value="&lt;span style=&quot;font-size: 11px; font-weight: 400;&quot;&gt;pairs&lt;/span&gt;&lt;br&gt;1" style="ellipse;whiteSpace=wrap;html=1;aspect=fixed;fontStyle=1" parent="EI81qtIW30OtZCoD6vLg-1" vertex="1">
          <mxGeometry y="80" width="40" height="40" as="geometry" />
        </mxCell>
        <mxCell id="ZXGNAjsmb9mcJ5op5P8p-8" style="edgeStyle=orthogonalEdgeStyle;rounded=0;orthogonalLoop=1;jettySize=auto;html=1;exitX=0;exitY=0.5;exitDx=0;exitDy=0;entryX=0;entryY=0.5;entryDx=0;entryDy=0;" parent="EI81qtIW30OtZCoD6vLg-1" source="ZXGNAjsmb9mcJ5op5P8p-6" target="ZXGNAjsmb9mcJ5op5P8p-7" edge="1">
          <mxGeometry relative="1" as="geometry" />
        </mxCell>
        <mxCell id="ZXGNAjsmb9mcJ5op5P8p-9" value="&lt;span style=&quot;font-weight: normal;&quot;&gt;&lt;font style=&quot;font-size: 11px;&quot;&gt;id&lt;/font&gt;&lt;/span&gt;&lt;br&gt;7" style="ellipse;whiteSpace=wrap;html=1;aspect=fixed;fontStyle=1" parent="EI81qtIW30OtZCoD6vLg-1" vertex="1">
          <mxGeometry x="60" y="80" width="40" height="40" as="geometry" />
        </mxCell>
        <mxCell id="18ElgGx3Zl_cGFaviyh4-3" style="edgeStyle=orthogonalEdgeStyle;rounded=0;orthogonalLoop=1;jettySize=auto;html=1;exitX=0.5;exitY=0;exitDx=0;exitDy=0;entryX=0.5;entryY=0;entryDx=0;entryDy=0;" parent="EI81qtIW30OtZCoD6vLg-1" source="ZXGNAjsmb9mcJ5op5P8p-7" target="ZXGNAjsmb9mcJ5op5P8p-9" edge="1">
          <mxGeometry relative="1" as="geometry">
            <Array as="points">
              <mxPoint x="20" y="50" />
              <mxPoint x="110" y="50" />
              <mxPoint x="110" y="60" />
              <mxPoint x="80" y="60" />
            </Array>
          </mxGeometry>
        </mxCell>
        <mxCell id="ZXGNAjsmb9mcJ5op5P8p-10" value="&lt;font style=&quot;font-size: 11px; font-weight: normal;&quot;&gt;amount&lt;/font&gt;&lt;br&gt;3" style="ellipse;whiteSpace=wrap;html=1;aspect=fixed;fontStyle=1" parent="EI81qtIW30OtZCoD6vLg-1" vertex="1">
          <mxGeometry x="120" y="80" width="40" height="40" as="geometry" />
        </mxCell>
        <mxCell id="ZXGNAjsmb9mcJ5op5P8p-11" value="&lt;span style=&quot;font-weight: normal;&quot;&gt;&lt;font style=&quot;font-size: 11px;&quot;&gt;pairs&lt;/font&gt;&lt;/span&gt;&lt;br&gt;2" style="ellipse;whiteSpace=wrap;html=1;aspect=fixed;fontStyle=1" parent="EI81qtIW30OtZCoD6vLg-1" vertex="1">
          <mxGeometry y="160" width="40" height="40" as="geometry" />
        </mxCell>
        <mxCell id="18ElgGx3Zl_cGFaviyh4-4" style="edgeStyle=orthogonalEdgeStyle;rounded=0;orthogonalLoop=1;jettySize=auto;html=1;exitX=0.5;exitY=0;exitDx=0;exitDy=0;entryX=0.5;entryY=0;entryDx=0;entryDy=0;" parent="EI81qtIW30OtZCoD6vLg-1" source="ZXGNAjsmb9mcJ5op5P8p-7" target="ZXGNAjsmb9mcJ5op5P8p-10" edge="1">
          <mxGeometry relative="1" as="geometry">
            <Array as="points">
              <mxPoint x="20" y="50" />
              <mxPoint x="110" y="50" />
              <mxPoint x="110" y="60" />
              <mxPoint x="140" y="60" />
            </Array>
          </mxGeometry>
        </mxCell>
        <mxCell id="ZXGNAjsmb9mcJ5op5P8p-12" style="edgeStyle=orthogonalEdgeStyle;rounded=0;orthogonalLoop=1;jettySize=auto;html=1;exitX=0;exitY=0.5;exitDx=0;exitDy=0;entryX=0;entryY=0.5;entryDx=0;entryDy=0;" parent="EI81qtIW30OtZCoD6vLg-1" source="ZXGNAjsmb9mcJ5op5P8p-6" target="ZXGNAjsmb9mcJ5op5P8p-11" edge="1">
          <mxGeometry relative="1" as="geometry" />
        </mxCell>
        <mxCell id="ZXGNAjsmb9mcJ5op5P8p-13" value="&lt;font style=&quot;font-size: 11px; font-weight: normal;&quot;&gt;amount&lt;/font&gt;&lt;br&gt;7" style="ellipse;whiteSpace=wrap;html=1;aspect=fixed;fontStyle=1" parent="EI81qtIW30OtZCoD6vLg-1" vertex="1">
          <mxGeometry x="60" y="160" width="40" height="40" as="geometry" />
        </mxCell>
        <mxCell id="36zZFPOLEqC7FODNwq5A-3" style="edgeStyle=orthogonalEdgeStyle;rounded=0;orthogonalLoop=1;jettySize=auto;html=1;exitX=0.5;exitY=0;exitDx=0;exitDy=0;entryX=0.5;entryY=0;entryDx=0;entryDy=0;" parent="EI81qtIW30OtZCoD6vLg-1" source="ZXGNAjsmb9mcJ5op5P8p-11" target="ZXGNAjsmb9mcJ5op5P8p-13" edge="1">
          <mxGeometry relative="1" as="geometry">
            <Array as="points">
              <mxPoint x="20" y="130" />
              <mxPoint x="110" y="130" />
              <mxPoint x="110" y="140" />
              <mxPoint x="80" y="140" />
            </Array>
          </mxGeometry>
        </mxCell>
        <mxCell id="ZXGNAjsmb9mcJ5op5P8p-14" value="&lt;font style=&quot;font-size: 11px; font-weight: normal;&quot;&gt;price&lt;/font&gt;&lt;br&gt;1" style="ellipse;whiteSpace=wrap;html=1;aspect=fixed;fontStyle=1" parent="EI81qtIW30OtZCoD6vLg-1" vertex="1">
          <mxGeometry x="120" y="160" width="40" height="40" as="geometry" />
        </mxCell>
        <mxCell id="36zZFPOLEqC7FODNwq5A-4" style="edgeStyle=orthogonalEdgeStyle;rounded=0;orthogonalLoop=1;jettySize=auto;html=1;exitX=0.5;exitY=0;exitDx=0;exitDy=0;entryX=0.5;entryY=0;entryDx=0;entryDy=0;" parent="EI81qtIW30OtZCoD6vLg-1" source="ZXGNAjsmb9mcJ5op5P8p-11" target="ZXGNAjsmb9mcJ5op5P8p-14" edge="1">
          <mxGeometry relative="1" as="geometry">
            <Array as="points">
              <mxPoint x="20" y="130" />
              <mxPoint x="110" y="130" />
              <mxPoint x="110" y="140" />
              <mxPoint x="140" y="140" />
            </Array>
          </mxGeometry>
        </mxCell>
        <mxCell id="18ElgGx3Zl_cGFaviyh4-0" value="&lt;span style=&quot;font-size: 11px; font-weight: 400;&quot;&gt;total&lt;/span&gt;&lt;br&gt;5" style="ellipse;whiteSpace=wrap;html=1;aspect=fixed;fontStyle=1" parent="EI81qtIW30OtZCoD6vLg-1" vertex="1">
          <mxGeometry x="180" y="80" width="40" height="40" as="geometry" />
        </mxCell>
        <mxCell id="36zZFPOLEqC7FODNwq5A-0" value="&lt;font style=&quot;font-size: 11px; font-weight: normal;&quot;&gt;amount&lt;/font&gt;&lt;br&gt;8" style="ellipse;whiteSpace=wrap;html=1;aspect=fixed;fontStyle=1" parent="EI81qtIW30OtZCoD6vLg-1" vertex="1">
          <mxGeometry x="180" y="160" width="40" height="40" as="geometry" />
        </mxCell>
        <mxCell id="36zZFPOLEqC7FODNwq5A-1" value="&lt;font style=&quot;font-size: 11px; font-weight: normal;&quot;&gt;price&lt;/font&gt;&lt;br&gt;2" style="ellipse;whiteSpace=wrap;html=1;aspect=fixed;fontStyle=1" parent="EI81qtIW30OtZCoD6vLg-1" vertex="1">
          <mxGeometry x="240" y="160" width="40" height="40" as="geometry" />
        </mxCell>
        <mxCell id="36zZFPOLEqC7FODNwq5A-2" value="&lt;span style=&quot;font-size: 11px; font-weight: 400;&quot;&gt;total&lt;/span&gt;&lt;br&gt;10" style="ellipse;whiteSpace=wrap;html=1;aspect=fixed;fontStyle=1" parent="EI81qtIW30OtZCoD6vLg-1" vertex="1">
          <mxGeometry x="300" y="160" width="40" height="40" as="geometry" />
        </mxCell>
        <mxCell id="36zZFPOLEqC7FODNwq5A-5" style="edgeStyle=orthogonalEdgeStyle;rounded=0;orthogonalLoop=1;jettySize=auto;html=1;exitX=0.5;exitY=0;exitDx=0;exitDy=0;entryX=0.5;entryY=0;entryDx=0;entryDy=0;" parent="EI81qtIW30OtZCoD6vLg-1" source="ZXGNAjsmb9mcJ5op5P8p-11" target="36zZFPOLEqC7FODNwq5A-0" edge="1">
          <mxGeometry relative="1" as="geometry">
            <Array as="points">
              <mxPoint x="20" y="130" />
              <mxPoint x="230" y="130" />
              <mxPoint x="230" y="140" />
              <mxPoint x="200" y="140" />
            </Array>
          </mxGeometry>
        </mxCell>
        <mxCell id="36zZFPOLEqC7FODNwq5A-6" style="edgeStyle=orthogonalEdgeStyle;rounded=0;orthogonalLoop=1;jettySize=auto;html=1;exitX=0.5;exitY=0;exitDx=0;exitDy=0;entryX=0.5;entryY=0;entryDx=0;entryDy=0;" parent="EI81qtIW30OtZCoD6vLg-1" source="ZXGNAjsmb9mcJ5op5P8p-11" target="36zZFPOLEqC7FODNwq5A-1" edge="1">
          <mxGeometry relative="1" as="geometry">
            <Array as="points">
              <mxPoint x="20" y="130" />
              <mxPoint x="230" y="130" />
              <mxPoint x="230" y="140" />
              <mxPoint x="260" y="140" />
            </Array>
          </mxGeometry>
        </mxCell>
        <mxCell id="EI81qtIW30OtZCoD6vLg-2" value="" style="group" parent="ZXGNAjsmb9mcJ5op5P8p-1" vertex="1" connectable="0">
          <mxGeometry x="520" y="100" width="260" height="140" as="geometry" />
        </mxCell>
        <mxCell id="ZXGNAjsmb9mcJ5op5P8p-16" value="&lt;font style=&quot;font-size: 11px; font-weight: normal;&quot;&gt;saving&lt;/font&gt;&lt;br&gt;1" style="ellipse;whiteSpace=wrap;html=1;aspect=fixed;fontStyle=1" parent="EI81qtIW30OtZCoD6vLg-2" vertex="1">
          <mxGeometry y="90" width="40" height="40" as="geometry" />
        </mxCell>
        <mxCell id="ZXGNAjsmb9mcJ5op5P8p-17" value="&lt;font style=&quot;font-size: 11px; font-weight: normal;&quot;&gt;saving&lt;/font&gt;&lt;br&gt;32" style="ellipse;whiteSpace=wrap;html=1;aspect=fixed;fontStyle=1" parent="EI81qtIW30OtZCoD6vLg-2" vertex="1">
          <mxGeometry y="10" width="40" height="40" as="geometry" />
        </mxCell>
        <mxCell id="ZXGNAjsmb9mcJ5op5P8p-18" value="" style="group" parent="EI81qtIW30OtZCoD6vLg-2" vertex="1" connectable="0">
          <mxGeometry x="80" y="80" width="180" height="60" as="geometry" />
        </mxCell>
        <mxCell id="ZXGNAjsmb9mcJ5op5P8p-19" value="" style="rounded=0;whiteSpace=wrap;html=1;" parent="ZXGNAjsmb9mcJ5op5P8p-18" vertex="1">
          <mxGeometry width="130" height="60" as="geometry" />
        </mxCell>
        <mxCell id="ZXGNAjsmb9mcJ5op5P8p-20" value="&lt;font style=&quot;font-size: 11px; font-weight: normal;&quot;&gt;item1&lt;/font&gt;&lt;br&gt;7-3" style="ellipse;whiteSpace=wrap;html=1;aspect=fixed;fontStyle=1" parent="ZXGNAjsmb9mcJ5op5P8p-18" vertex="1">
          <mxGeometry x="10" y="10" width="40" height="40" as="geometry" />
        </mxCell>
        <mxCell id="ZXGNAjsmb9mcJ5op5P8p-22" value="&lt;span style=&quot;font-weight: normal;&quot;&gt;&lt;font style=&quot;font-size: 11px;&quot;&gt;total&lt;/font&gt;&lt;/span&gt;&lt;br&gt;5" style="ellipse;whiteSpace=wrap;html=1;aspect=fixed;fontStyle=1" parent="ZXGNAjsmb9mcJ5op5P8p-18" vertex="1">
          <mxGeometry x="70" y="10" width="40" height="40" as="geometry" />
        </mxCell>
        <mxCell id="ZXGNAjsmb9mcJ5op5P8p-23" style="edgeStyle=orthogonalEdgeStyle;rounded=0;orthogonalLoop=1;jettySize=auto;html=1;exitX=1;exitY=0.5;exitDx=0;exitDy=0;entryX=0;entryY=0.5;entryDx=0;entryDy=0;" parent="EI81qtIW30OtZCoD6vLg-2" source="ZXGNAjsmb9mcJ5op5P8p-16" target="ZXGNAjsmb9mcJ5op5P8p-19" edge="1">
          <mxGeometry relative="1" as="geometry" />
        </mxCell>
        <mxCell id="ZXGNAjsmb9mcJ5op5P8p-24" value="" style="group" parent="EI81qtIW30OtZCoD6vLg-2" vertex="1" connectable="0">
          <mxGeometry x="80" width="180" height="60" as="geometry" />
        </mxCell>
        <mxCell id="ZXGNAjsmb9mcJ5op5P8p-25" value="" style="rounded=0;whiteSpace=wrap;html=1;" parent="ZXGNAjsmb9mcJ5op5P8p-24" vertex="1">
          <mxGeometry width="180" height="60" as="geometry" />
        </mxCell>
        <mxCell id="Z-7HKJJWO40QhY36IEwG-0" style="edgeStyle=orthogonalEdgeStyle;rounded=0;orthogonalLoop=1;jettySize=auto;html=1;exitX=1;exitY=0.5;exitDx=0;exitDy=0;entryX=0;entryY=0.5;entryDx=0;entryDy=0;" parent="ZXGNAjsmb9mcJ5op5P8p-24" source="ZXGNAjsmb9mcJ5op5P8p-26" target="ZXGNAjsmb9mcJ5op5P8p-27" edge="1">
          <mxGeometry relative="1" as="geometry" />
        </mxCell>
        <mxCell id="ZXGNAjsmb9mcJ5op5P8p-26" value="&lt;font style=&quot;font-size: 11px; font-weight: normal;&quot;&gt;item1&lt;/font&gt;&lt;br&gt;7-1" style="ellipse;whiteSpace=wrap;html=1;aspect=fixed;fontStyle=1" parent="ZXGNAjsmb9mcJ5op5P8p-24" vertex="1">
          <mxGeometry x="10" y="10" width="40" height="40" as="geometry" />
        </mxCell>
        <mxCell id="ZXGNAjsmb9mcJ5op5P8p-27" value="&lt;font style=&quot;font-size: 11px; font-weight: normal;&quot;&gt;item2&lt;/font&gt;&lt;br&gt;8-2" style="ellipse;whiteSpace=wrap;html=1;aspect=fixed;fontStyle=1" parent="ZXGNAjsmb9mcJ5op5P8p-24" vertex="1">
          <mxGeometry x="70" y="10" width="40" height="40" as="geometry" />
        </mxCell>
        <mxCell id="ZXGNAjsmb9mcJ5op5P8p-28" value="&lt;font style=&quot;font-size: 11px; font-weight: normal;&quot;&gt;total&lt;/font&gt;&lt;br&gt;10" style="ellipse;whiteSpace=wrap;html=1;aspect=fixed;fontStyle=1" parent="ZXGNAjsmb9mcJ5op5P8p-24" vertex="1">
          <mxGeometry x="130" y="10" width="40" height="40" as="geometry" />
        </mxCell>
        <mxCell id="ZXGNAjsmb9mcJ5op5P8p-29" style="edgeStyle=orthogonalEdgeStyle;rounded=0;orthogonalLoop=1;jettySize=auto;html=1;exitX=1;exitY=0.5;exitDx=0;exitDy=0;entryX=0;entryY=0.5;entryDx=0;entryDy=0;" parent="EI81qtIW30OtZCoD6vLg-2" source="ZXGNAjsmb9mcJ5op5P8p-17" target="ZXGNAjsmb9mcJ5op5P8p-25" edge="1">
          <mxGeometry relative="1" as="geometry" />
        </mxCell>
      </root>
    </mxGraphModel>
  </diagram>
  <diagram name="algo_greedy" id="ShA64PbuUUFWpbki7htN">
    <mxGraphModel dx="1434" dy="782" grid="1" gridSize="10" guides="1" tooltips="1" connect="1" arrows="1" fold="1" page="1" pageScale="1" pageWidth="340" pageHeight="480" math="0" shadow="0">
      <root>
        <mxCell id="kW1B54EnBhv2tybxuVK7-0" />
        <mxCell id="kW1B54EnBhv2tybxuVK7-1" parent="kW1B54EnBhv2tybxuVK7-0" />
        <mxCell id="mn9b20Nn6fm7IiUMcih6-10" style="edgeStyle=orthogonalEdgeStyle;rounded=0;orthogonalLoop=1;jettySize=auto;html=1;exitX=0.5;exitY=1;exitDx=0;exitDy=0;entryX=0.5;entryY=0;entryDx=0;entryDy=0;" parent="kW1B54EnBhv2tybxuVK7-1" source="mn9b20Nn6fm7IiUMcih6-2" target="mn9b20Nn6fm7IiUMcih6-9" edge="1">
          <mxGeometry relative="1" as="geometry" />
        </mxCell>
        <mxCell id="mn9b20Nn6fm7IiUMcih6-2" value="Get next item" style="rounded=1;whiteSpace=wrap;html=1;fontSize=11;" parent="kW1B54EnBhv2tybxuVK7-1" vertex="1">
          <mxGeometry x="160" y="40" width="100" height="40" as="geometry" />
        </mxCell>
        <mxCell id="mn9b20Nn6fm7IiUMcih6-19" style="edgeStyle=orthogonalEdgeStyle;rounded=0;orthogonalLoop=1;jettySize=auto;html=1;exitX=1;exitY=0.5;exitDx=0;exitDy=0;entryX=0;entryY=0.5;entryDx=0;entryDy=0;" parent="kW1B54EnBhv2tybxuVK7-1" source="mn9b20Nn6fm7IiUMcih6-4" target="mn9b20Nn6fm7IiUMcih6-2" edge="1">
          <mxGeometry relative="1" as="geometry" />
        </mxCell>
        <mxCell id="mn9b20Nn6fm7IiUMcih6-4" value="Start" style="ellipse;whiteSpace=wrap;html=1;fontSize=11;" parent="kW1B54EnBhv2tybxuVK7-1" vertex="1">
          <mxGeometry x="40" y="40" width="80" height="40" as="geometry" />
        </mxCell>
        <mxCell id="mn9b20Nn6fm7IiUMcih6-7" value="yes" style="edgeStyle=orthogonalEdgeStyle;rounded=0;orthogonalLoop=1;jettySize=auto;html=1;exitX=1;exitY=0.5;exitDx=0;exitDy=0;entryX=1;entryY=0.5;entryDx=0;entryDy=0;" parent="kW1B54EnBhv2tybxuVK7-1" source="mn9b20Nn6fm7IiUMcih6-5" target="mn9b20Nn6fm7IiUMcih6-2" edge="1">
          <mxGeometry relative="1" as="geometry">
            <Array as="points">
              <mxPoint x="300" y="410" />
              <mxPoint x="300" y="60" />
            </Array>
          </mxGeometry>
        </mxCell>
        <mxCell id="mn9b20Nn6fm7IiUMcih6-21" value="no" style="edgeStyle=orthogonalEdgeStyle;rounded=0;orthogonalLoop=1;jettySize=auto;html=1;exitX=0;exitY=0.5;exitDx=0;exitDy=0;entryX=1;entryY=0.5;entryDx=0;entryDy=0;" parent="kW1B54EnBhv2tybxuVK7-1" source="mn9b20Nn6fm7IiUMcih6-5" target="mn9b20Nn6fm7IiUMcih6-20" edge="1">
          <mxGeometry relative="1" as="geometry" />
        </mxCell>
        <mxCell id="mn9b20Nn6fm7IiUMcih6-5" value="Any item left?" style="rhombus;whiteSpace=wrap;html=1;fontSize=11;" parent="kW1B54EnBhv2tybxuVK7-1" vertex="1">
          <mxGeometry x="160" y="380" width="100" height="60" as="geometry" />
        </mxCell>
        <mxCell id="mn9b20Nn6fm7IiUMcih6-13" value="yes" style="edgeStyle=orthogonalEdgeStyle;rounded=0;orthogonalLoop=1;jettySize=auto;html=1;exitX=0.5;exitY=1;exitDx=0;exitDy=0;entryX=0.5;entryY=0;entryDx=0;entryDy=0;" parent="kW1B54EnBhv2tybxuVK7-1" source="mn9b20Nn6fm7IiUMcih6-9" target="mn9b20Nn6fm7IiUMcih6-12" edge="1">
          <mxGeometry relative="1" as="geometry" />
        </mxCell>
        <mxCell id="mn9b20Nn6fm7IiUMcih6-16" value="no" style="edgeStyle=orthogonalEdgeStyle;rounded=0;orthogonalLoop=1;jettySize=auto;html=1;exitX=0;exitY=0.5;exitDx=0;exitDy=0;entryX=0;entryY=0.5;entryDx=0;entryDy=0;" parent="kW1B54EnBhv2tybxuVK7-1" source="mn9b20Nn6fm7IiUMcih6-9" target="mn9b20Nn6fm7IiUMcih6-14" edge="1">
          <mxGeometry relative="1" as="geometry">
            <Array as="points">
              <mxPoint x="120" y="150" />
              <mxPoint x="120" y="320" />
            </Array>
          </mxGeometry>
        </mxCell>
        <mxCell id="mn9b20Nn6fm7IiUMcih6-9" value="Is there best&lt;br&gt;promotion?" style="rhombus;whiteSpace=wrap;html=1;fontSize=11;" parent="kW1B54EnBhv2tybxuVK7-1" vertex="1">
          <mxGeometry x="160" y="120" width="100" height="60" as="geometry" />
        </mxCell>
        <mxCell id="mn9b20Nn6fm7IiUMcih6-15" style="edgeStyle=orthogonalEdgeStyle;rounded=0;orthogonalLoop=1;jettySize=auto;html=1;exitX=0.5;exitY=1;exitDx=0;exitDy=0;entryX=0.5;entryY=0;entryDx=0;entryDy=0;" parent="kW1B54EnBhv2tybxuVK7-1" source="mn9b20Nn6fm7IiUMcih6-12" target="mn9b20Nn6fm7IiUMcih6-14" edge="1">
          <mxGeometry relative="1" as="geometry" />
        </mxCell>
        <mxCell id="mn9b20Nn6fm7IiUMcih6-12" value="Use promotions" style="rounded=1;whiteSpace=wrap;html=1;fontSize=11;" parent="kW1B54EnBhv2tybxuVK7-1" vertex="1">
          <mxGeometry x="160" y="220" width="100" height="40" as="geometry" />
        </mxCell>
        <mxCell id="mn9b20Nn6fm7IiUMcih6-17" style="edgeStyle=orthogonalEdgeStyle;rounded=0;orthogonalLoop=1;jettySize=auto;html=1;exitX=0.5;exitY=1;exitDx=0;exitDy=0;entryX=0.5;entryY=0;entryDx=0;entryDy=0;" parent="kW1B54EnBhv2tybxuVK7-1" source="mn9b20Nn6fm7IiUMcih6-14" target="mn9b20Nn6fm7IiUMcih6-5" edge="1">
          <mxGeometry relative="1" as="geometry" />
        </mxCell>
        <mxCell id="mn9b20Nn6fm7IiUMcih6-14" value="Deduce leftovers" style="rounded=1;whiteSpace=wrap;html=1;fontSize=11;" parent="kW1B54EnBhv2tybxuVK7-1" vertex="1">
          <mxGeometry x="160" y="300" width="100" height="40" as="geometry" />
        </mxCell>
        <mxCell id="mn9b20Nn6fm7IiUMcih6-20" value="End" style="ellipse;whiteSpace=wrap;html=1;fontSize=11;" parent="kW1B54EnBhv2tybxuVK7-1" vertex="1">
          <mxGeometry x="40" y="390" width="80" height="40" as="geometry" />
        </mxCell>
      </root>
    </mxGraphModel>
  </diagram>
  <diagram name="algo_dfs" id="fm7Xf2IBQ8mMwgGnDRle">
    <mxGraphModel dx="1434" dy="782" grid="1" gridSize="10" guides="1" tooltips="1" connect="1" arrows="1" fold="1" page="1" pageScale="1" pageWidth="340" pageHeight="480" math="0" shadow="0">
      <root>
        <mxCell id="kaK16nWfqtA56Y1vywm0-0" />
        <mxCell id="kaK16nWfqtA56Y1vywm0-1" parent="kaK16nWfqtA56Y1vywm0-0" />
        <mxCell id="LyfJqcGmzk4E8NuKHcWJ-2" style="rounded=0;orthogonalLoop=1;jettySize=auto;html=1;exitX=0.75;exitY=1;exitDx=0;exitDy=0;entryX=1;entryY=0;entryDx=0;entryDy=0;" parent="kaK16nWfqtA56Y1vywm0-1" source="kaK16nWfqtA56Y1vywm0-3" target="kaK16nWfqtA56Y1vywm0-11" edge="1">
          <mxGeometry relative="1" as="geometry" />
        </mxCell>
        <mxCell id="kaK16nWfqtA56Y1vywm0-3" value="Get next promotion" style="rounded=1;whiteSpace=wrap;html=1;fontSize=11;" parent="kaK16nWfqtA56Y1vywm0-1" vertex="1">
          <mxGeometry x="160" y="120" width="100" height="40" as="geometry" />
        </mxCell>
        <mxCell id="pTkuQUaGIGfN4gZZfeoD-1" style="edgeStyle=orthogonalEdgeStyle;rounded=0;orthogonalLoop=1;jettySize=auto;html=1;exitX=1;exitY=0.5;exitDx=0;exitDy=0;entryX=0;entryY=0.5;entryDx=0;entryDy=0;" edge="1" parent="kaK16nWfqtA56Y1vywm0-1" source="kaK16nWfqtA56Y1vywm0-5" target="pTkuQUaGIGfN4gZZfeoD-0">
          <mxGeometry relative="1" as="geometry" />
        </mxCell>
        <mxCell id="kaK16nWfqtA56Y1vywm0-5" value="Start" style="ellipse;whiteSpace=wrap;html=1;fontSize=11;" parent="kaK16nWfqtA56Y1vywm0-1" vertex="1">
          <mxGeometry x="40" y="40" width="80" height="40" as="geometry" />
        </mxCell>
        <mxCell id="LyfJqcGmzk4E8NuKHcWJ-0" value="yes" style="edgeStyle=orthogonalEdgeStyle;rounded=0;orthogonalLoop=1;jettySize=auto;html=1;exitX=1;exitY=0.5;exitDx=0;exitDy=0;entryX=1;entryY=0.5;entryDx=0;entryDy=0;" parent="kaK16nWfqtA56Y1vywm0-1" source="kaK16nWfqtA56Y1vywm0-8" target="kaK16nWfqtA56Y1vywm0-3" edge="1">
          <mxGeometry relative="1" as="geometry">
            <Array as="points">
              <mxPoint x="300" y="410" />
              <mxPoint x="300" y="140" />
            </Array>
          </mxGeometry>
        </mxCell>
        <mxCell id="Z7goq3fPiFGx_r0g6I7z-1" value="no" style="edgeStyle=orthogonalEdgeStyle;rounded=0;orthogonalLoop=1;jettySize=auto;html=1;exitX=0;exitY=0.5;exitDx=0;exitDy=0;entryX=1;entryY=0.5;entryDx=0;entryDy=0;" parent="kaK16nWfqtA56Y1vywm0-1" source="kaK16nWfqtA56Y1vywm0-8" target="kaK16nWfqtA56Y1vywm0-16" edge="1">
          <mxGeometry relative="1" as="geometry">
            <mxPoint x="210" y="400" as="targetPoint" />
          </mxGeometry>
        </mxCell>
        <mxCell id="kaK16nWfqtA56Y1vywm0-8" value="Any promotion&lt;br&gt;left?" style="rhombus;whiteSpace=wrap;html=1;fontSize=11;" parent="kaK16nWfqtA56Y1vywm0-1" vertex="1">
          <mxGeometry x="160" y="380" width="100" height="60" as="geometry" />
        </mxCell>
        <mxCell id="kaK16nWfqtA56Y1vywm0-9" value="yes" style="edgeStyle=orthogonalEdgeStyle;rounded=0;orthogonalLoop=1;jettySize=auto;html=1;exitX=0.5;exitY=1;exitDx=0;exitDy=0;entryX=0.5;entryY=0;entryDx=0;entryDy=0;" parent="kaK16nWfqtA56Y1vywm0-1" source="kaK16nWfqtA56Y1vywm0-11" target="kaK16nWfqtA56Y1vywm0-13" edge="1">
          <mxGeometry relative="1" as="geometry" />
        </mxCell>
        <mxCell id="LyfJqcGmzk4E8NuKHcWJ-4" value="no" style="edgeStyle=orthogonalEdgeStyle;rounded=0;orthogonalLoop=1;jettySize=auto;html=1;exitX=0;exitY=0;exitDx=0;exitDy=0;entryX=0.25;entryY=1;entryDx=0;entryDy=0;" parent="kaK16nWfqtA56Y1vywm0-1" source="kaK16nWfqtA56Y1vywm0-11" target="kaK16nWfqtA56Y1vywm0-3" edge="1">
          <mxGeometry relative="1" as="geometry" />
        </mxCell>
        <mxCell id="kaK16nWfqtA56Y1vywm0-11" value="Is there item&lt;br&gt;to deduce?" style="rhombus;whiteSpace=wrap;html=1;fontSize=11;" parent="kaK16nWfqtA56Y1vywm0-1" vertex="1">
          <mxGeometry x="160" y="200" width="100" height="60" as="geometry" />
        </mxCell>
        <mxCell id="bvF6OzbMrkk9uJ7bFOm--3" style="edgeStyle=orthogonalEdgeStyle;rounded=0;orthogonalLoop=1;jettySize=auto;html=1;exitX=0.5;exitY=1;exitDx=0;exitDy=0;entryX=0.5;entryY=0;entryDx=0;entryDy=0;" parent="kaK16nWfqtA56Y1vywm0-1" source="kaK16nWfqtA56Y1vywm0-13" target="kaK16nWfqtA56Y1vywm0-8" edge="1">
          <mxGeometry relative="1" as="geometry" />
        </mxCell>
        <mxCell id="kaK16nWfqtA56Y1vywm0-13" value="Use promotion" style="rounded=1;whiteSpace=wrap;html=1;fontSize=11;" parent="kaK16nWfqtA56Y1vywm0-1" vertex="1">
          <mxGeometry x="160" y="300" width="100" height="40" as="geometry" />
        </mxCell>
        <mxCell id="kaK16nWfqtA56Y1vywm0-16" value="End" style="ellipse;whiteSpace=wrap;html=1;fontSize=11;" parent="kaK16nWfqtA56Y1vywm0-1" vertex="1">
          <mxGeometry x="40" y="390" width="80" height="40" as="geometry" />
        </mxCell>
        <mxCell id="pTkuQUaGIGfN4gZZfeoD-2" style="edgeStyle=orthogonalEdgeStyle;rounded=0;orthogonalLoop=1;jettySize=auto;html=1;exitX=0.5;exitY=1;exitDx=0;exitDy=0;entryX=0.5;entryY=0;entryDx=0;entryDy=0;" edge="1" parent="kaK16nWfqtA56Y1vywm0-1" source="pTkuQUaGIGfN4gZZfeoD-0" target="kaK16nWfqtA56Y1vywm0-3">
          <mxGeometry relative="1" as="geometry" />
        </mxCell>
        <mxCell id="pTkuQUaGIGfN4gZZfeoD-0" value="Sum all items&#39; worth" style="rounded=1;whiteSpace=wrap;html=1;fontSize=11;" vertex="1" parent="kaK16nWfqtA56Y1vywm0-1">
          <mxGeometry x="160" y="40" width="100" height="40" as="geometry" />
        </mxCell>
      </root>
    </mxGraphModel>
  </diagram>
</mxfile>
